<mxfile host="app.diagrams.net" modified="2022-03-12T02:06:20.074Z" agent="5.0 (Windows NT 10.0; Win64; x64) AppleWebKit/537.36 (KHTML, like Gecko) Chrome/99.0.4844.51 Safari/537.36" etag="afhCr1WVdfqiXLNDOBld" version="17.1.2" type="github">
  <diagram id="rI4DRmW3Dproxab-LJKH" name="Page-1">
    <mxGraphModel dx="1038" dy="539" grid="1" gridSize="10" guides="1" tooltips="1" connect="1" arrows="1" fold="1" page="1" pageScale="1" pageWidth="827" pageHeight="1169" math="0" shadow="0">
      <root>
        <mxCell id="0" />
        <mxCell id="1" parent="0" />
        <mxCell id="OUP4B7GiUFA9sdUwkmHF-5" value="" style="rounded=0;whiteSpace=wrap;html=1;" vertex="1" parent="1">
          <mxGeometry x="120" y="160" width="520" height="280" as="geometry" />
        </mxCell>
        <mxCell id="OUP4B7GiUFA9sdUwkmHF-6" value="基于摩尔斯电码的控制系统&lt;br&gt;000" style="text;html=1;strokeColor=none;fillColor=none;align=center;verticalAlign=middle;whiteSpace=wrap;rounded=0;" vertex="1" parent="1">
          <mxGeometry x="290" y="170" width="180" height="30" as="geometry" />
        </mxCell>
        <mxCell id="OUP4B7GiUFA9sdUwkmHF-7" style="edgeStyle=orthogonalEdgeStyle;rounded=0;orthogonalLoop=1;jettySize=auto;html=1;exitX=1;exitY=0.25;exitDx=0;exitDy=0;entryX=0;entryY=0.25;entryDx=0;entryDy=0;" edge="1" parent="1" source="OUP4B7GiUFA9sdUwkmHF-1" target="OUP4B7GiUFA9sdUwkmHF-2">
          <mxGeometry relative="1" as="geometry" />
        </mxCell>
        <mxCell id="OUP4B7GiUFA9sdUwkmHF-1" value="发送端&lt;br&gt;10" style="rounded=0;whiteSpace=wrap;html=1;" vertex="1" parent="1">
          <mxGeometry x="140" y="280" width="120" height="80" as="geometry" />
        </mxCell>
        <mxCell id="OUP4B7GiUFA9sdUwkmHF-9" style="edgeStyle=orthogonalEdgeStyle;rounded=0;orthogonalLoop=1;jettySize=auto;html=1;exitX=0;exitY=0.5;exitDx=0;exitDy=0;entryX=1;entryY=0.5;entryDx=0;entryDy=0;" edge="1" parent="1" source="OUP4B7GiUFA9sdUwkmHF-2" target="OUP4B7GiUFA9sdUwkmHF-1">
          <mxGeometry relative="1" as="geometry" />
        </mxCell>
        <mxCell id="OUP4B7GiUFA9sdUwkmHF-2" value="接收端&lt;br&gt;20" style="rounded=0;whiteSpace=wrap;html=1;" vertex="1" parent="1">
          <mxGeometry x="410" y="280" width="120" height="80" as="geometry" />
        </mxCell>
        <mxCell id="OUP4B7GiUFA9sdUwkmHF-3" value="传感器&lt;br&gt;201" style="rounded=0;whiteSpace=wrap;html=1;" vertex="1" parent="1">
          <mxGeometry x="570" y="270" width="40" height="30" as="geometry" />
        </mxCell>
        <mxCell id="OUP4B7GiUFA9sdUwkmHF-4" value="继电器&lt;br&gt;202" style="rounded=0;whiteSpace=wrap;html=1;" vertex="1" parent="1">
          <mxGeometry x="570" y="340" width="40" height="30" as="geometry" />
        </mxCell>
        <mxCell id="OUP4B7GiUFA9sdUwkmHF-8" value="控制信号10a" style="text;html=1;strokeColor=none;fillColor=none;align=center;verticalAlign=middle;whiteSpace=wrap;rounded=0;" vertex="1" parent="1">
          <mxGeometry x="310" y="270" width="60" height="30" as="geometry" />
        </mxCell>
        <mxCell id="OUP4B7GiUFA9sdUwkmHF-10" value="返回信号20a" style="text;html=1;strokeColor=none;fillColor=none;align=center;verticalAlign=middle;whiteSpace=wrap;rounded=0;" vertex="1" parent="1">
          <mxGeometry x="310" y="320" width="60" height="30" as="geometry" />
        </mxCell>
        <mxCell id="OUP4B7GiUFA9sdUwkmHF-11" value="" style="endArrow=none;html=1;rounded=0;entryX=0;entryY=0.5;entryDx=0;entryDy=0;exitX=1;exitY=0.25;exitDx=0;exitDy=0;" edge="1" parent="1" source="OUP4B7GiUFA9sdUwkmHF-2" target="OUP4B7GiUFA9sdUwkmHF-3">
          <mxGeometry width="50" height="50" relative="1" as="geometry">
            <mxPoint x="390" y="260" as="sourcePoint" />
            <mxPoint x="440" y="210" as="targetPoint" />
          </mxGeometry>
        </mxCell>
        <mxCell id="OUP4B7GiUFA9sdUwkmHF-13" value="" style="endArrow=none;html=1;rounded=0;entryX=0;entryY=0.5;entryDx=0;entryDy=0;exitX=1;exitY=0.75;exitDx=0;exitDy=0;" edge="1" parent="1" source="OUP4B7GiUFA9sdUwkmHF-2" target="OUP4B7GiUFA9sdUwkmHF-4">
          <mxGeometry width="50" height="50" relative="1" as="geometry">
            <mxPoint x="390" y="260" as="sourcePoint" />
            <mxPoint x="440" y="210" as="targetPoint" />
          </mxGeometry>
        </mxCell>
      </root>
    </mxGraphModel>
  </diagram>
</mxfile>
